<svg width="16" height="6" viewBox="0 0 16 6" fill="none" xmlns="http://www.w3.org/2000/svg">
<path d="M11.1583 3.83478C12.2157 4.8 13.4957 6 16 6V3.65217C14.7356 3.45839 13.8296 3.02609 12.8835 2.16522L12.875 2.15743C11.8191 1.19356 10.5115 0 8.01391 0C5.48847 0 4.18087 1.19363 3.12496 2.15752L3.11652 2.16522C2.17043 3.02609 1.50261 3.65217 0 3.65217V6C2.50435 6 3.81217 4.8 4.89739 3.83478C5.84348 2.97391 6.5113 2.34783 8.01391 2.34783C9.47623 2.34783 10.1725 2.96337 11.1336 3.81301L11.1583 3.83478Z" fill="#D9D9D9"/>
</svg>
